<svg class="card-icon" width="48" height="23" viewBox="0 0 48 23" xmlns="http://www.w3.org/2000/svg"><g transform="translate(-2 -16)" fill="none" fill-rule="evenodd"><circle fill="none" cx="26" cy="26" r="26"/><g fill="#333" fill-rule="nonzero"><path d="M44.9 16a5.1 5.1 0 00-4.3 8l-5.5 5.5a5 5 0 00-5.6 0L23.9 24a5.2 5.2 0 00-4.2-8 5.1 5.1 0 00-4.3 8l-5.5 5.5a5 5 0 00-2.8-.8A5.1 5.1 0 002 33.8C2 36.7 4.3 39 7.1 39a5.1 5.1 0 004.3-8l5.5-5.5a5 5 0 005.5 0L28 31a5.2 5.2 0 004.3 7.9 5.1 5.1 0 004.3-8l5.5-5.5a5 5 0 002.8.8 5.1 5.1 0 000-10.3zM7.1 36.9a3 3 0 01-3-3 3 3 0 013-3 3 3 0 013 3 3 3 0 01-3 3zm12.6-12.7a3 3 0 01-3-3 3 3 0 013-3 3 3 0 013 3 3 3 0 01-3 3zm12.6 12.7a3 3 0 01-3-3 3 3 0 013-3 3 3 0 013 3 3 3 0 01-3 3zM45 24.2a3 3 0 01-3-3 3 3 0 013-3 3 3 0 013 3 3 3 0 01-3 3z"/><path d="M18.7 28.3a1 1 0 00-1.4 0l-2 2a1 1 0 001.4 1.4l2-2c.4-.4.4-1 0-1.4zM37.7 22.3a1 1 0 00-1.4 0l-2 2a1 1 0 001.4 1.4l2-2c.4-.4.4-1 0-1.4z"/></g></g></svg>